<svg width="32" height="32" viewBox="0 0 32 32" fill="none" xmlns="http://www.w3.org/2000/svg">
<path d="M25 15.5C25.0034 16.8199 24.6951 18.1219 24.1 19.3C23.3944 20.7118 22.3098 21.8992 20.9674 22.7293C19.6251 23.5594 18.0782 23.9994 16.5 24C15.1801 24.0035 13.8781 23.6951 12.7 23.1L7 25L8.9 19.3C8.30493 18.1219 7.99656 16.8199 8 15.5C8.00061 13.9218 8.44061 12.3749 9.27072 11.0326C10.1008 9.69028 11.2883 8.6056 12.7 7.90003C13.8781 7.30496 15.1801 6.99659 16.5 7.00003H17C19.0843 7.11502 21.053 7.99479 22.5291 9.47089C24.0052 10.947 24.885 12.9157 25 15V15.5Z" stroke="white" stroke-width="2" stroke-linecap="round" stroke-linejoin="round"/>
</svg>
